<?xml version="1.0" encoding="utf-8"?>
<!-- Generator: Adobe Illustrator 25.0.1, SVG Export Plug-In . SVG Version: 6.00 Build 0)  -->
<svg version="1.1" id="behance" xmlns="http://www.w3.org/2000/svg" xmlns:xlink="http://www.w3.org/1999/xlink" x="0px" y="0px"
	 viewBox="0 0 320.7 320.7" style="enable-background:new 0 0 320.7 320.7;" xml:space="preserve">
<style type="text/css">
	.st0{fill:#FFFFFF;}
</style>
<path class="st0" d="M126.4,192.8c0,20.6-13.8,23-21.2,23.2H55.7v-47.7h51.9C107.6,168.3,126.4,168,126.4,192.8z M120.2,119.5
	c0-18.6-12.6-18.6-12.6-18.6h-6.7H55.7v39.8h48.7C112.8,140.8,120.2,138.1,120.2,119.5z M240.5,140.8c-27.5,0-31.4,27.5-31.4,27.5
	h58.6C267.7,168.3,268.1,140.8,240.5,140.8z M320.7,37.8v245c0,20.9-16.9,37.8-37.8,37.8h-245C16.9,320.7,0,303.7,0,282.8v-245
	C0,16.9,16.9,0,37.8,0h245C303.7,0,320.7,16.9,320.7,37.8z M201.5,101.7H275v-22h-73.6v22H201.5z M130.9,150.7c0,0,27.2-2,27.2-33.9
	s-22.3-47.5-50.5-47.5H55.7h-1.5H14.8v178.4h39.4h1.5h51.9c0,0,56.7,1.8,56.7-52.6C164.3,195,166.7,150.7,130.9,150.7z M239.8,114.6
	c-68.6,0-68.5,68.5-68.5,68.5s-4.7,68.2,68.5,68.2c0,0,61,3.5,61-47.4h-31.4c0,0,1,19.2-28.6,19.2c0,0-31.4,2.1-31.4-31h92.4
	C301.9,192.1,312,114.6,239.8,114.6z"/>
</svg>
