<?xml version="1.0" encoding="utf-8"?>
<!-- Generator: Adobe Illustrator 25.0.1, SVG Export Plug-In . SVG Version: 6.00 Build 0)  -->
<svg version="1.1" id="Layer_1" xmlns="http://www.w3.org/2000/svg" xmlns:xlink="http://www.w3.org/1999/xlink" x="0px" y="0px"
	 viewBox="0 0 128 128.2" style="enable-background:new 0 0 128 128.2;" xml:space="preserve">
<style type="text/css">
	.st0{fill:#FFFFFF;}
</style>
<path class="st0" d="M64,0c18.2,0,36.3,0.1,54.5,0c4.8,0,8.8,3.5,9.4,7.7c0.1,0.5,0.1,1,0.1,1.4c0,36.7,0,73.3,0,109.9
	c0,4.9-3.9,8.9-8.7,9.1c-0.3,0-0.6,0-1,0c-36.3,0-72.5,0-108.8,0c-4.6,0-8-2.4-9.2-6.6c-0.2-0.9-0.4-1.8-0.4-2.7
	C0,82.4,0,45.8,0,9.3C0,4.1,3.9,0.1,9.1,0c4.4,0,8.8,0,13.2,0C36.2,0,50.1,0,64,0z M68.3,56.3c0-2.6-0.1-4.8,0-7
	c0-1.1-0.3-1.5-1.4-1.4c-5.2,0.1-10.5,0.1-15.7,0c-1.3,0-1.5,0.4-1.5,1.6c0,19.5,0,39,0,58.5c0,1.2,0.3,1.6,1.5,1.6
	c5.4-0.1,10.9-0.1,16.3,0c1.2,0,1.5-0.4,1.5-1.6c0-9.8,0-19.6,0-29.4c0-2,0.1-4.1,0.5-6.1c0.7-4.1,2.6-7.5,7.1-8.6
	c1.3-0.3,2.8-0.4,4.1-0.4c4.6,0.1,7.4,2.2,8.5,6.7c0.6,2.4,0.8,5,0.8,7.5c0.1,10.1,0.1,20.2,0,30.2c0,1.2,0.3,1.6,1.6,1.6
	c5.4-0.1,10.9-0.1,16.3,0c1.2,0,1.5-0.4,1.5-1.5c0-10.8,0-21.7,0-32.5c0-4.4-0.2-8.9-1.2-13.2c-1.2-5.1-3.4-9.6-8.1-12.6
	c-2.8-1.8-6-2.7-9.3-3.1c-4.1-0.5-8.1-0.5-12,1C74.3,49.3,70.9,52.1,68.3,56.3z M18.8,78.7c0,9.8,0,19.6,0,29.4
	c0,1.1,0.4,1.4,1.4,1.4c5.5,0,11,0,16.5,0c1.1,0,1.4-0.4,1.4-1.5c0-19.6,0-39.1,0-58.7c0-1.2-0.4-1.5-1.5-1.5
	c-5.5,0-10.9,0.1-16.4,0c-1.2,0-1.5,0.4-1.5,1.5C18.8,59.2,18.8,68.9,18.8,78.7z M28.4,39.7c6.2,0,11.1-4.9,11.1-11.1
	s-5-11.2-11.1-11.2s-11.1,5-11.1,11.2S22.2,39.7,28.4,39.7z"/>
</svg>
