<?xml version="1.0" encoding="utf-8"?>
<!-- Generator: Adobe Illustrator 25.0.1, SVG Export Plug-In . SVG Version: 6.00 Build 0)  -->
<svg version="1.1" id="Layer_1_xA0_Image_1_" xmlns="http://www.w3.org/2000/svg" xmlns:xlink="http://www.w3.org/1999/xlink"
	 x="0px" y="0px" viewBox="0 0 2109 2109" style="enable-background:new 0 0 2109 2109;" xml:space="preserve">
<style type="text/css">
	.st0{fill:#FFFFFF;}
</style>
<path class="st0" d="M0,1925.1C0,1344,0,763,0,181.9c1.5-6,3.4-11.9,4.6-17.9c16-82.8,77.8-144.6,161-160.7
	c6.1-1.2,12.2-2.2,18.3-3.3C765,0,1346,0,1927.1,0c7.4,1.3,14.9,2.5,22.3,4c98.3,19.8,153.9,104.7,157.9,172.4
	c0.1,1.9,1.1,3.6,1.7,5.5c0,581.1,0,1162.1,0,1743.2c-1,6.8-1.6,13.8-3.1,20.5c-19.3,84.2-70.8,137-154.7,157.9
	c-8,2-16.1,3.7-24.1,5.5c-581.1,0-1162.1,0-1743.2,0c-4.8-1.2-9.4-2.9-14.3-3.6c-85.8-13.5-153.3-81.8-166-168.1
	C3.1,1933.1,1.3,1929.2,0,1925.1z M1763.4,540.4c37.1-24.5,69.9-53.5,97.1-88.4c27.1-34.8,48-73,60.3-115.9
	c-74.6,42.4-153.3,72.9-236.9,89.1c-109-114.2-269-146.3-408.2-94c-69.8,26.2-127.1,69.8-170.6,130.2
	c-66.2,92.1-85.3,194.6-63.1,306.4c-75.7-3.8-148.7-15.4-220.6-34.6C749.5,714,680.3,687.5,614,653.6c-66.7-34-129-74.5-187.3-121.5
	C368.9,485.6,317,433,269.3,375.8c-33.6,54-56.7,130.4-50.8,212.7c8.6,120.9,64.4,216.1,163.7,288.4
	c-60.3-2.6-114.6-18.5-165.7-46.2c-5.1,30,4.8,100.7,29.1,154.3c52.3,115.4,141.4,187.1,263.5,219.1c-53.4,14.6-107,15.3-162.9,5.6
	c25.7,77.3,69.6,139,133.1,186.8c63.4,47.7,135.3,71.8,214.7,76.2c-0.8,1.6-1.7,2-2.5,2.6c-57.6,43.8-119.9,79.2-187.4,105.3
	c-60.9,23.6-123.7,38.9-188.6,46.1c-32.4,3.6-65,5.7-97.7,4.3c-21.3-0.9-42.5-2.5-63.8-3.6c-2.9-0.2-6.4-1.9-9.6,1.6
	c2.9,1.9,5.4,3.7,7.9,5.2c36,22.2,73,42.5,111.3,60.6c123.7,58.3,254,91.1,390.4,99.3c46.2,2.8,92.5,2.2,138.8-0.6
	c63-3.8,125.2-12.5,186.5-27c83.3-19.7,163-49,239-88.6c80.2-41.8,153.3-93.6,219.7-155c49-45.3,93.2-95.1,132.7-148.9
	c47.8-65.2,88.1-134.8,120.8-208.7c28.9-65.3,51.5-132.8,67.6-202.3c18.3-79.1,27.9-159.3,27.5-240.5c-0.1-12-0.6-23.9-1.1-35.9
	c-0.2-5.4,1-9.2,5.8-12.6c9.8-6.8,19.1-14.4,28.4-21.9c57.4-46.3,106.6-100.2,148.3-161c1.2-1.8,2.1-3.8,4.2-7.8
	C1904.1,512.8,1835.3,532,1763.4,540.4z"/>
</svg>
